<svg id="Layer_1" data-name="Layer 1" xmlns="http://www.w3.org/2000/svg" xmlns:xlink="http://www.w3.org/1999/xlink" viewBox="0 0 512 512"><defs><style>.cls-1{fill:url(#linear-gradient);}.cls-2{fill:url(#linear-gradient-2);}</style><linearGradient id="linear-gradient" x1="256" x2="256" y2="512" gradientUnits="userSpaceOnUse"><stop offset="0" stop-color="#9533b0"/><stop offset="1" stop-color="#5c2b8c"/></linearGradient><linearGradient id="linear-gradient-2" x1="255.07" y1="433.99" x2="255.07" y2="71.65" gradientUnits="userSpaceOnUse"><stop offset="0" stop-color="#e1e5e8"/><stop offset="1" stop-color="#f6f8fa"/></linearGradient></defs><title>Untitled-2</title><path class="cls-1" d="M256.07,0C398-.13,511.91,113.92,512,256.29,512.09,397.44,397.73,511.87,256.44,512A255.54,255.54,0,0,1,0,255.07C.29,113.58,114.18.13,256.07,0Zm34.07,340.45c11.86,14.4,11.32,31.63,11.05,48.83-.14,9.32,0,18.65,0,28,0,16.82,4.41,19.85,20.11,13.91,83-31.39,130.81-115.44,116.61-204.81C421.78,124.84,320,53.8,220.29,75.59,146.4,91.73,96.56,136.48,76.94,209.68c-19.47,72.68,1,135.86,56.09,187.23,17.21,16.06,37.58,27.38,59.66,35.42,10.24,3.73,16.74,1.09,17.26-7.26.72-11.63.18-23.34.18-33.93-10.08,0-18.28.49-26.39-.11-12.87-.94-25.52-4.16-32-16.5-7.66-14.73-14.94-29.34-29.37-38.81-.52-.34-.25-1.91-.34-2.88,15.57-3.57,22.47.14,35.6,18.92,10.73,15.36,24.39,20.35,43,16.61,16.82-3.4,11.52-20.54,19.79-27.64-15.63-5.43-30.69-9.07-44.3-15.69-39.36-19.14-47.76-87.74-23.59-119.6,2.72-3.59,3-9.45,3.36-14.33.75-10.59.54-21.24,1.2-31.84.46-7.41,5.52-10.29,12-8,11,3.9,21.56,9.25,32.58,13.21,5.37,1.93,11.69,3.78,17,2.77a199.42,199.42,0,0,1,74.62,0c5.31,1,11.59-1.07,17-3,11.37-4,22.33-9.17,33.69-13.19,5.79-2,10.07,1.15,10.52,7.18.81,10.94.77,21.95,1.29,32.91.19,4.05-.42,9.18,1.73,11.94,14.31,18.3,16.64,39.33,14.31,61.17-3,27.9-14.06,51.41-41.31,63.26C318.23,332.92,304.86,335.85,290.14,340.45Z" transform="translate(0 0)"/><path class="cls-2" d="M290.14,340.45c14.72-4.6,28.09-7.53,40.39-12.89,27.25-11.85,38.34-35.36,41.31-63.26,2.33-21.84,0-42.87-14.31-61.17-2.15-2.76-1.54-7.89-1.73-11.94-.52-11-.48-22-1.29-32.91-.45-6-4.73-9.22-10.52-7.18-11.36,4-22.32,9.19-33.69,13.19-5.39,1.91-11.67,4-17,3a199.42,199.42,0,0,0-74.62,0c-5.34,1-11.66-.84-17-2.77-11-4-21.54-9.31-32.58-13.21-6.45-2.28-11.51.6-12,8-.66,10.6-.45,21.25-1.2,31.84-.34,4.88-.64,10.74-3.36,14.33C128.39,237.3,136.79,305.9,176.15,325c13.61,6.62,28.67,10.26,44.3,15.69-8.27,7.1-3,24.24-19.79,27.64-18.59,3.74-32.25-1.25-43-16.61-13.13-18.78-20-22.49-35.6-18.92.09,1-.18,2.54.34,2.88,14.43,9.47,21.71,24.08,29.37,38.81,6.43,12.34,19.08,15.56,32,16.5,8.11.6,16.31.11,26.39.11,0,10.59.54,22.3-.18,33.93-.52,8.35-7,11-17.26,7.26-22.08-8-42.45-19.36-59.66-35.42C77.94,345.54,57.47,282.36,76.94,209.68,96.56,136.48,146.4,91.73,220.29,75.59,320,53.8,421.78,124.84,437.91,226.35c14.2,89.37-33.65,173.42-116.61,204.81-15.7,5.94-20.08,2.91-20.11-13.91,0-9.32-.14-18.65,0-28C301.46,372.08,302,354.85,290.14,340.45Z" transform="translate(0 0)"/></svg>