<svg aria-hidden="true" style="position: absolute; width: 0; height: 0; overflow: hidden;" version="1.1" xmlns="http://www.w3.org/2000/svg" xmlns:xlink="http://www.w3.org/1999/xlink">
<defs>

<!-- LOGO -->

<symbol id="icon-fireship" viewBox="0 0 1024 1024">
<path d="M404,44.27c-1.65-1.4-5.44-1.34-8.59-2-1.65,2.44-3.78,4.37-4.3,6.5a122,122,0,0,0-2.67,16.34c-12.19,122.65-57.84,236.48-146.68,340.66-49.28,57.78-98.33,116.85-134.6,179.62-90,155.75-9.91,314.8,186.41,384.32,6.46,2.27,13.72,3.31,29.91,7.09C256.89,916.59,222.6,855.39,234.16,783c11-69.07,45.95-130.69,98.87-186.88,3.9,7.82,4.14,14.63,3.87,21.44-2.58,61.62,17.81,116,80.82,158.94,29.13,19.84,55.29,42.31,81.63,64.39,26.76,22.5,34.51,49.54,26.91,79-3.66,14.32-9,28.39-14.78,46.07,44.84-4.43,86.31-10.62,114.15-35.39,26.61-23.65,46.31-51.73,74.72-84.4,2,27.66,5.89,49.18,4.38,70.5-1.59,22.17-8.44,44.11-13,66.19C828,962.32,948.21,828.63,953.49,691.85c3.87-99.81-81.06-246-152.38-260.18,4,9.36,7.72,18.24,11.71,27,24.75,54.5,32,109.76,16.34,166.79C813.51,682.19,734.08,745.82,664,753.87c2.37-5.69,3.36-11,6.61-15.33C746.09,636.85,747,530.42,704.1,421.81,646.74,276.6,536.61,155.21,404,44.27Z"></path>
</symbol>

<!-- SOCIALS -->

<symbol id="icon-facebook" viewBox="0 0 24 24">
<path d="M21.82,0H2.18A2.19,2.19,0,0,0,0,2.18V21.82A2.19,2.19,0,0,0,2.18,24H13.09V14.18H9.82V10.91h3.27V9.15c0-3.33,1.62-4.79,4.39-4.79a14.78,14.78,0,0,1,2.35.15V7.64H18c-1.18,0-1.59.62-1.59,1.87v1.4H19.8l-.46,3.27h-3V24h5.46A2.19,2.19,0,0,0,24,21.82V2.18A2.19,2.19,0,0,0,21.82,0Z"/>
</symbol>

<symbol id="icon-twitter" viewBox="0 0 512 512">
<path d="M459.37 151.716c.325 4.548.325 9.097.325 13.645 0 138.72-105.583 298.558-298.558 298.558-59.452 0-114.68-17.219-161.137-47.106 8.447.974 16.568 1.299 25.34 1.299 49.055 0 94.213-16.568 130.274-44.832-46.132-.975-84.792-31.188-98.112-72.772 6.498.974 12.995 1.624 19.818 1.624 9.421 0 18.843-1.3 27.614-3.573-48.081-9.747-84.143-51.98-84.143-102.985v-1.299c13.969 7.797 30.214 12.67 47.431 13.319-28.264-18.843-46.781-51.005-46.781-87.391 0-19.492 5.197-37.36 14.294-52.954 51.655 63.675 129.3 105.258 216.365 109.807-1.624-7.797-2.599-15.918-2.599-24.04 0-57.828 46.782-104.934 104.934-104.934 30.213 0 57.502 12.67 76.67 33.137 23.715-4.548 46.456-13.32 66.599-25.34-7.798 24.366-24.366 44.833-46.132 57.827 21.117-2.273 41.584-8.122 60.426-16.243-14.292 20.791-32.161 39.308-52.628 54.253z" />
</symbol>

<symbol id="icon-youtube" viewBox="0 0 576 512">
<path d="M549.655 124.083c-6.281-23.65-24.787-42.276-48.284-48.597C458.781 64 288 64 288 64S117.22 64 74.629 75.486c-23.497 6.322-42.003 24.947-48.284 48.597-11.412 42.867-11.412 132.305-11.412 132.305s0 89.438 11.412 132.305c6.281 23.65 24.787 41.5 48.284 47.821C117.22 448 288 448 288 448s170.78 0 213.371-11.486c23.497-6.321 42.003-24.171 48.284-47.821 11.412-42.867 11.412-132.305 11.412-132.305s0-89.438-11.412-132.305zm-317.51 213.508V175.185l142.739 81.205-142.739 81.201z" />
</symbol>

<symbol id="icon-linkedin" viewBox="0 0 448 512">
<path d="M416 32H31.9C14.3 32 0 46.5 0 64.3v383.4C0 465.5 14.3 480 31.9 480H416c17.6 0 32-14.5 32-32.3V64.3c0-17.8-14.4-32.3-32-32.3zM135.4 416H69V202.2h66.5V416zm-33.2-243c-21.3 0-38.5-17.3-38.5-38.5S80.9 96 102.2 96c21.2 0 38.5 17.3 38.5 38.5 0 21.3-17.2 38.5-38.5 38.5zm282.1 243h-66.4V312c0-24.8-.5-56.7-34.5-56.7-34.6 0-39.9 27-39.9 54.9V416h-66.4V202.2h63.7v29.2h.9c8.9-16.8 30.6-34.5 62.9-34.5 67.2 0 79.7 44.3 79.7 101.9V416z"/>
</symbol>

<symbol id="icon-medium" viewBox="0 0 448 512">
<path d="M0 32v448h448V32H0zm372.2 106.1l-24 23c-2.1 1.6-3.1 4.2-2.7 6.7v169.3c-.4 2.6.6 5.2 2.7 6.7l23.5 23v5.1h-118V367l24.3-23.6c2.4-2.4 2.4-3.1 2.4-6.7V199.8l-67.6 171.6h-9.1L125 199.8v115c-.7 4.8 1 9.7 4.4 13.2l31.6 38.3v5.1H71.2v-5.1l31.6-38.3c3.4-3.5 4.9-8.4 4.1-13.2v-133c.4-3.7-1-7.3-3.8-9.8L75 138.1V133h87.3l67.4 148L289 133.1h83.2v5z"/>
</symbol>

<symbol id="icon-portfolio" viewBox="0 0 512 512">
<path d="M204.3 5C104.9 24.4 24.8 104.3 5.2 203.4c-37 187 131.7 326.4 258.8 306.7 41.2-6.4 61.4-54.6 42.5-91.7-23.1-45.4 9.9-98.4 60.9-98.4h79.7c35.8 0 64.8-29.6 64.9-65.3C511.5 97.1 368.1-26.9 204.3 5zM96 320c-17.7 0-32-14.3-32-32s14.3-32 32-32 32 14.3 32 32-14.3 32-32 32zm32-128c-17.7 0-32-14.3-32-32s14.3-32 32-32 32 14.3 32 32-14.3 32-32 32zm128-64c-17.7 0-32-14.3-32-32s14.3-32 32-32 32 14.3 32 32-14.3 32-32 32zm128 64c-17.7 0-32-14.3-32-32s14.3-32 32-32 32 14.3 32 32-14.3 32-32 32z"/>
</symbol>

<symbol id="icon-github" viewBox="0 0 496 512">
<path d="M165.9 397.4c0 2-2.3 3.6-5.2 3.6-3.3.3-5.6-1.3-5.6-3.6 0-2 2.3-3.6 5.2-3.6 3-.3 5.6 1.3 5.6 3.6zm-31.1-4.5c-.7 2 1.3 4.3 4.3 4.9 2.6 1 5.6 0 6.2-2s-1.3-4.3-4.3-5.2c-2.6-.7-5.5.3-6.2 2.3zm44.2-1.7c-2.9.7-4.9 2.6-4.6 4.9.3 2 2.9 3.3 5.9 2.6 2.9-.7 4.9-2.6 4.6-4.6-.3-1.9-3-3.2-5.9-2.9zM244.8 8C106.1 8 0 113.3 0 252c0 110.9 69.8 205.8 169.5 239.2 12.8 2.3 17.3-5.6 17.3-12.1 0-6.2-.3-40.4-.3-61.4 0 0-70 15-84.7-29.8 0 0-11.4-29.1-27.8-36.6 0 0-22.9-15.7 1.6-15.4 0 0 24.9 2 38.6 25.8 21.9 38.6 58.6 27.5 72.9 20.9 2.3-16 8.8-27.1 16-33.7-55.9-6.2-112.3-14.3-112.3-110.5 0-27.5 7.6-41.3 23.6-58.9-2.6-6.5-11.1-33.3 2.6-67.9 20.9-6.5 69 27 69 27 20-5.6 41.5-8.5 62.8-8.5s42.8 2.9 62.8 8.5c0 0 48.1-33.6 69-27 13.7 34.7 5.2 61.4 2.6 67.9 16 17.7 25.8 31.5 25.8 58.9 0 96.5-58.9 104.2-114.8 110.5 9.2 7.9 17 22.9 17 46.4 0 33.7-.3 75.4-.3 83.6 0 6.5 4.6 14.4 17.3 12.1C428.2 457.8 496 362.9 496 252 496 113.3 383.5 8 244.8 8zM97.2 352.9c-1.3 1-1 3.3.7 5.2 1.6 1.6 3.9 2.3 5.2 1 1.3-1 1-3.3-.7-5.2-1.6-1.6-3.9-2.3-5.2-1zm-10.8-8.1c-.7 1.3.3 2.9 2.3 3.9 1.6 1 3.6.7 4.3-.7.7-1.3-.3-2.9-2.3-3.9-2-.6-3.6-.3-4.3.7zm32.4 35.6c-1.6 1.3-1 4.3 1.3 6.2 2.3 2.3 5.2 2.6 6.5 1 1.3-1.3.7-4.3-1.3-6.2-2.2-2.3-5.2-2.6-6.5-1zm-11.4-14.7c-1.6 1-1.6 3.6 0 5.9 1.6 2.3 4.3 3.3 5.6 2.3 1.6-1.3 1.6-3.9 0-6.2-1.4-2.3-4-3.3-5.6-2z"></path>
</symbol>

<symbol id="icon-slack" viewBox="0 0 448 512">
<path d="M244.2 217.5l19.3 57.7-59.8 20-19.3-57.7 59.8-20zm41.4 243.7C131.6 507.4 65 471.6 18.8 317.6S8.4 97 162.4 50.8C316.4 4.6 383 40.4 429.2 194.4c46.2 154 10.4 220.6-143.6 266.8zM366.2 265c-3.9-12.2-17.2-18.6-29.4-14.7l-29 9.7-19.3-57.7 29-9.7c12.2-3.9 18.6-17.2 14.7-29.4-3.9-12.2-17.2-18.6-29.4-14.7l-29 9.7-10-30.1c-3.9-12.2-17.2-18.6-29.4-14.7-12.2 3.9-18.6 17.2-14.7 29.4l10 30.1-59.8 20.1-10-30.1c-3.9-12.2-17.2-18.6-29.4-14.7-12.2 3.9-18.6 17.2-14.7 29.4l10 30.1-29 9.7c-12.2 3.9-18.6 17.2-14.7 29.4 3.2 9.3 12.2 15.4 21.5 15.8 4.3.6 7.7-1 36.9-10.7l19.3 57.7-29 9.7c-12.2 3.9-18.6 17.2-14.7 29.4 3.2 9.3 12.2 15.4 21.5 15.8 4.3.6 7.7-1 36.9-10.7l10 30.1c3.7 10.8 15.8 18.6 29.4 14.7 12.2-3.9 18.6-17.2 14.7-29.4l-10-30.1 59.8-20.1 10 30.1c3.7 10.8 15.8 18.6 29.4 14.7 12.2-3.9 18.6-17.2 14.7-29.4l-10-30.1 29-9.7c12.2-4.2 18.6-17.5 14.7-29.6z"></path>
</symbol>

<!-- ICONS -->

<symbol id="icon-angular" viewBox="0 0 32 32">
<polygon points="16 2 16 2 16 2 2.966 6.648 4.954 23.882 16 30 16 30 16 30 27.046 23.882 29.034 6.648 16 2" style="fill:#dd0031"></polygon>
<polygon points="16 2 16 5.108 16 5.094 16 19.276 16 19.276 16 30 16 30 27.046 23.882 29.034 6.648 16 2" style="fill:#c3002f"></polygon>
<path d="M16,5.094,7.852,23.364H10.89l1.638-4.088h6.916l1.638,4.088H24.12L16,5.094Zm2.38,11.662H13.62L16,11.03Z" style="fill:#fff"></path>
</symbol>

<symbol id="icon-github-color" viewBox="0 0 512 512">
<path d="M256.07,0C398-.13,511.91,113.92,512,256.29,512.09,397.44,397.73,511.87,256.44,512,115.31,512.5.5,398.5,0,257.37v-2.3C.29,113.58,114.18.13,256.07,0Zm34.07,340.45c11.86,14.4,11.32,31.63,11.05,48.83-.14,9.32,0,18.65,0,28,0,16.82,4.41,19.85,20.11,13.91,83-31.39,130.81-115.44,116.61-204.81C421.78,124.84,320,53.8,220.29,75.59,146.4,91.73,96.56,136.48,76.94,209.68c-19.47,72.68,1,135.86,56.09,187.23,17.21,16.06,37.58,27.38,59.66,35.42,10.24,3.73,16.74,1.09,17.26-7.26.72-11.63.18-23.34.18-33.93-10.08,0-18.28.49-26.39-.11-12.87-.94-25.52-4.16-32-16.5-7.66-14.73-14.94-29.34-29.37-38.81-.52-.34-.25-1.91-.34-2.88,15.57-3.57,22.47.14,35.6,18.92,10.73,15.36,24.39,20.35,43,16.61,16.82-3.4,11.52-20.54,19.79-27.64-15.63-5.43-30.69-9.07-44.3-15.69-39.36-19.14-47.76-87.74-23.59-119.6,2.72-3.59,3-9.45,3.36-14.33.75-10.59.54-21.24,1.2-31.84.46-7.41,5.52-10.29,12-8,11,3.9,21.56,9.25,32.58,13.21,5.37,1.93,11.69,3.78,17,2.77a199.21,199.21,0,0,1,74.62,0c5.31,1,11.59-1.07,17-3,11.37-4,22.33-9.17,33.69-13.19,5.79-2,10.07,1.15,10.52,7.18.81,10.94.77,21.95,1.29,32.91.19,4-.42,9.18,1.73,11.94,14.31,18.3,16.64,39.33,14.31,61.17-3,27.9-14.06,51.41-41.31,63.26C318.23,332.92,304.86,335.85,290.14,340.45Z" style="fill:#782f9e"/>
<path d="M290.14,340.45c14.72-4.6,28.09-7.53,40.39-12.89,27.25-11.85,38.34-35.36,41.31-63.26,2.33-21.84,0-42.87-14.31-61.17-2.15-2.76-1.54-7.89-1.73-11.94-.52-11-.48-22-1.29-32.91-.45-6-4.73-9.22-10.52-7.18-11.36,4-22.32,9.19-33.69,13.19-5.39,1.91-11.67,4-17,3a199.21,199.21,0,0,0-74.62,0c-5.34,1-11.66-.84-17-2.77-11-4-21.54-9.31-32.58-13.21-6.45-2.28-11.51.6-12,8-.66,10.6-.45,21.25-1.2,31.84-.34,4.88-.64,10.74-3.36,14.33C128.39,237.3,136.79,305.9,176.15,325c13.61,6.62,28.67,10.26,44.3,15.69-8.27,7.1-3,24.24-19.79,27.64-18.59,3.74-32.25-1.25-43-16.61-13.13-18.78-20-22.49-35.6-18.92.09,1-.18,2.54.34,2.88,14.43,9.47,21.71,24.08,29.37,38.81,6.43,12.34,19.08,15.56,32,16.5,8.11.6,16.31.11,26.39.11,0,10.59.54,22.3-.18,33.93-.52,8.35-7,11-17.26,7.26-22.08-8-42.45-19.36-59.66-35.42C77.94,345.54,57.47,282.36,76.94,209.68,96.56,136.48,146.4,91.73,220.29,75.59,320,53.8,421.78,124.84,437.91,226.35c14.2,89.37-33.65,173.42-116.61,204.81-15.7,5.94-20.08,2.91-20.11-13.91,0-9.32-.14-18.65,0-28C301.46,372.08,302,354.85,290.14,340.45Z" style="fill:#f6f8fa"/>
</symbol>

<symbol id="icon-firebase" viewBox="0 0 32 32">
<path d="M5.8,24.6l.17-.237L13.99,9.149l.017-.161L10.472,2.348a.656.656,0,0,0-1.227.207Z" style="fill:#ffc24a"></path>
<path d="M5.9,24.42l.128-.25L13.965,9.114,10.439,2.448a.6.6,0,0,0-1.133.206Z" style="fill:#ffa712"></path>
<path d="M16.584,14.01l2.632-2.7L16.583,6.289a.678.678,0,0,0-1.195,0L13.981,8.971V9.2Z" style="fill:#f4bd62"></path>
<path d="M16.537,13.9l2.559-2.62L16.537,6.4a.589.589,0,0,0-1.074-.047L14.049,9.082l-.042.139Z" style="fill:#ffa50e"></path>
<polygon points="5.802 24.601 5.879 24.523 6.158 24.41 16.418 14.188 16.548 13.834 13.989 8.956 5.802 24.601" style="fill:#f6820c"></polygon>
<path d="M16.912,29.756,26.2,24.577,23.546,8.246A.635.635,0,0,0,22.471,7.9L5.8,24.6l9.233,5.155a1.927,1.927,0,0,0,1.878,0" style="fill:#fde068"></path>
<path d="M26.115,24.534,23.483,8.326a.557.557,0,0,0-.967-.353L5.9,24.569l9.131,5.1a1.912,1.912,0,0,0,1.863,0Z" style="fill:#fcca3f"></path>
<path d="M16.912,29.6a1.927,1.927,0,0,1-1.878,0L5.876,24.522,5.8,24.6l9.233,5.155a1.927,1.927,0,0,0,1.878,0L26.2,24.577l-.023-.14Z" style="fill:#eeab37"></path>
</symbol>

<symbol id="icon-spidy" viewBox="0 0 576 512">
<path d="M382.29 26.13c-2.79-8.38 1.73-17.44 10.12-20.24L407.58.83c8.38-2.8 17.45 1.73 20.24 10.12l25.89 77.68a32.04 32.04 0 0 1-1.73 24.43l-27.15 54.3L398.9 176h-4.67l-5.22-26.12c-.71-3.58-1.8-7.58-3.21-11.79l20.29-40.58-23.8-71.38zM151.17 167.35L177.1 176h4.67l5.22-26.12c.72-3.58 1.8-7.58 3.21-11.79l-20.29-40.58 23.8-71.39c2.79-8.38-1.73-17.44-10.12-20.24L168.42.82c-8.38-2.8-17.45 1.73-20.24 10.12l-25.89 77.68a32.04 32.04 0 0 0 1.73 24.43l27.15 54.3zm417.7 204.21l-13.31 8.88c-7.35 4.9-17.29 2.91-22.19-4.44l-48-72h-47.06l60.83 97.33a31.988 31.988 0 0 1 4.86 16.96V496c0 8.84-7.16 16-16 16h-16c-8.84 0-16-7.16-16-16v-73.11l-74.08-118.53c1.01 14.05 2.08 28.11 2.08 42.21C384 399.64 343.24 448 288 448s-96-48.36-96-101.43c0-14.1 1.08-28.16 2.08-42.21L120 422.89V496c0 8.84-7.16 16-16 16H88c-8.84 0-16-7.16-16-16v-77.71c0-6 1.69-11.88 4.86-16.96L137.69 304H90.63l-48 72c-4.9 7.35-14.84 9.34-22.19 4.44l-13.31-8.88c-7.35-4.9-9.34-14.84-4.44-22.19l52.75-79.12A32.007 32.007 0 0 1 82.07 256H160l-68.99-24.36a32.03 32.03 0 0 1-16.51-12.61l-53.6-80.41c-4.9-7.35-2.91-17.29 4.44-22.19l13.31-8.88c7.35-4.9 17.29-2.91 22.19 4.44l50.56 75.83L171.9 208H208l10.37-51.85C220.56 145.18 235.74 96 288 96c52.26 0 67.44 49.18 69.63 60.15L368 208h36.1l60.49-20.17L515.16 112c4.9-7.35 14.83-9.34 22.19-4.44l13.31 8.88c7.35 4.9 9.34 14.83 4.44 22.19l-53.6 80.41a32.03 32.03 0 0 1-16.51 12.61L416 256h77.94c10.7 0 20.69 5.35 26.62 14.25l52.75 79.12c4.9 7.36 2.92 17.29-4.44 22.19zM300 320l26.4-35.2c3.96-5.27.19-12.8-6.4-12.8h-64c-6.59 0-10.36 7.53-6.4 12.8L276 320l-26.4 35.2c-3.96 5.27-.19 12.8 6.4 12.8h64c6.59 0 10.36-7.53 6.4-12.8L300 320z"></path>
</symbol>

<symbol id="icon-merged" viewBox="0 0 384 512">
<path d="M304 192c-38 0-69.8 26.5-77.9 62-23.9-3.5-58-12.9-83.9-37.6-16.6-15.9-27.9-36.5-33.7-61.6C138.6 143.3 160 114.1 160 80c0-44.2-35.8-80-80-80S0 35.8 0 80c0 35.8 23.5 66.1 56 76.3v199.3C23.5 365.9 0 396.2 0 432c0 44.2 35.8 80 80 80s80-35.8 80-80c0-35.8-23.5-66.1-56-76.3V246.1c1.6 1.7 3.3 3.4 5 5 39.3 37.5 90.4 48.6 121.2 51.8 12.1 28.9 40.6 49.2 73.8 49.2 44.2 0 80-35.8 80-80S348.2 192 304 192zM80 48c17.6 0 32 14.4 32 32s-14.4 32-32 32-32-14.4-32-32 14.4-32 32-32zm0 416c-17.6 0-32-14.4-32-32s14.4-32 32-32 32 14.4 32 32-14.4 32-32 32zm224-160c-17.6 0-32-14.4-32-32s14.4-32 32-32 32 14.4 32 32-14.4 32-32 32z"></path>
</symbol>

<!-- LANGUAGES -->

<symbol id="icon-js" viewBox="0 0 32 32">
  <rect x="2" y="2" width="28" height="28" style="fill: #f5de19"></rect>
  <path
    d="M20.809,23.875a2.866,2.866,0,0,0,2.6,1.6c1.09,0,1.787-.545,1.787-1.3,0-.9-.716-1.222-1.916-1.747l-.658-.282c-1.9-.809-3.16-1.822-3.16-3.964,0-1.973,1.5-3.476,3.853-3.476a3.889,3.889,0,0,1,3.742,2.107L25,18.128A1.789,1.789,0,0,0,23.311,17a1.145,1.145,0,0,0-1.259,1.128c0,.789.489,1.109,1.618,1.6l.658.282c2.236.959,3.5,1.936,3.5,4.133,0,2.369-1.861,3.667-4.36,3.667a5.055,5.055,0,0,1-4.795-2.691Zm-9.295.228c.413.733.789,1.353,1.693,1.353.864,0,1.41-.338,1.41-1.653V14.856h2.631v8.982c0,2.724-1.6,3.964-3.929,3.964a4.085,4.085,0,0,1-3.947-2.4Z"
    style="fill: #232323"
  ></path>
</symbol>

<symbol id="icon-html" viewBox="0 0 32 32">
  <polygon points="5.902 27.201 3.655 2 28.345 2 26.095 27.197 15.985 30 5.902 27.201" style="fill:#e44f26"></polygon>
  <polygon points="16 27.858 24.17 25.593 26.092 4.061 16 4.061 16 27.858" style="fill:#f1662a"></polygon>
  <polygon points="16 13.407 11.91 13.407 11.628 10.242 16 10.242 16 7.151 15.989 7.151 8.25 7.151 8.324 7.981 9.083 16.498 16 16.498 16 13.407" style="fill:#ebebeb"></polygon>
  <polygon points="16 21.434 15.986 21.438 12.544 20.509 12.324 18.044 10.651 18.044 9.221 18.044 9.654 22.896 15.986 24.654 16 24.65 16 21.434" style="fill:#ebebeb"></polygon>
  <polygon points="15.989 13.407 15.989 16.498 19.795 16.498 19.437 20.507 15.989 21.437 15.989 24.653 22.326 22.896 22.372 22.374 23.098 14.237 23.174 13.407 22.341 13.407 15.989 13.407" style="fill:#fff"></polygon>
  <polygon points="15.989 7.151 15.989 9.071 15.989 10.235 15.989 10.242 23.445 10.242 23.445 10.242 23.455 10.242 23.517 9.548 23.658 7.981 23.732 7.151 15.989 7.151" style="fill:#fff"></polygon>
</symbol>

<symbol id="icon-css" viewBox="0 0 32 32">
<polygon points="5.902 27.201 3.656 2 28.344 2 26.095 27.197 15.985 30 5.902 27.201" style="fill:#1572b6"></polygon><polygon points="16 27.858 24.17 25.593 26.092 4.061 16 4.061 16 27.858" style="fill:#33a9dc"></polygon><polygon points="16 13.191 20.09 13.191 20.372 10.026 16 10.026 16 6.935 16.011 6.935 23.75 6.935 23.676 7.764 22.917 16.282 16 16.282 16 13.191" style="fill:#fff"></polygon><polygon points="16.019 21.218 16.005 21.222 12.563 20.292 12.343 17.827 10.67 17.827 9.24 17.827 9.673 22.68 16.004 24.438 16.019 24.434 16.019 21.218" style="fill:#ebebeb"></polygon><polygon points="19.827 16.151 19.455 20.29 16.008 21.22 16.008 24.436 22.344 22.68 22.391 22.158 22.928 16.151 19.827 16.151" style="fill:#fff"></polygon><polygon points="16.011 6.935 16.011 8.855 16.011 10.018 16.011 10.026 8.555 10.026 8.555 10.026 8.545 10.026 8.483 9.331 8.342 7.764 8.268 6.935 16.011 6.935" style="fill:#ebebeb"></polygon><polygon points="16 13.191 16 15.111 16 16.274 16 16.282 12.611 16.282 12.611 16.282 12.601 16.282 12.539 15.587 12.399 14.02 12.325 13.191 16 13.191" style="fill:#ebebeb"></polygon>
</symbol>

<symbol id="icon-terminal" viewBox="0 0 640 512">
<path d="M257.981 272.971L63.638 467.314c-9.373 9.373-24.569 9.373-33.941 0L7.029 444.647c-9.357-9.357-9.375-24.522-.04-33.901L161.011 256 6.99 101.255c-9.335-9.379-9.317-24.544.04-33.901l22.667-22.667c9.373-9.373 24.569-9.373 33.941 0L257.981 239.03c9.373 9.372 9.373 24.568 0 33.941zM640 456v-32c0-13.255-10.745-24-24-24H312c-13.255 0-24 10.745-24 24v32c0 13.255 10.745 24 24 24h304c13.255 0 24-10.745 24-24z"></path>
</symbol>

<symbol id="icon-typescript" viewBox="0 0 32 32">
<rect width="32" height="32" style="fill:#1976d2"/>
<polygon points="19.1 14.22 7.31 14.22 7.31 17.12 11.54 17.12 11.54 30.22 14.89 30.22 14.89 17.12 19.1 17.12 19.1 14.22" style="fill:#fff"/>
<path d="M29.51,17.85a6.93,6.93,0,0,0-3.39-1.06c-1.79,0-2.44.86-2.44,1.77,0,2.35,6.56,2.12,6.56,6.85,0,7.3-10,4.06-10,4.06V26a7.81,7.81,0,0,0,4.2,1.45c2.3,0,2.21-1.51,2.21-1.71,0-2.18-6.5-2.18-6.5-7,0-6.57,9.47-4,9.47-4Z" style="fill:#fff"/>
</symbol>

<symbol id="icon-go" viewBox="0 0 32 32">
<path d="M5.987,17.15c.04.826.865.444,1.239.186.355-.245.459-.041.49-.525a7.937,7.937,0,0,0,.039-.955,2.342,2.342,0,0,0-1.56.4c-.227.165-.651.69-.208.9" style="fill:#f6d2a2;fill-rule:evenodd"></path><path d="M6.416,17.732a.527.527,0,0,1-.236-.051.541.541,0,0,1-.27-.482.358.358,0,0,1-.2-.283,1.006,1.006,0,0,1,.432-.727,2.4,2.4,0,0,1,1.613-.413l.068.006,0,.068a5.667,5.667,0,0,1-.023.747c-.006.073-.011.145-.016.218-.022.343-.086.395-.263.456a.975.975,0,0,0-.261.129A1.788,1.788,0,0,1,6.416,17.732Zm1.11-1.808a2.2,2.2,0,0,0-1.286.394c-.162.118-.387.394-.368.584a.219.219,0,0,0,.147.177l.043.02,0,.047c.01.206.072.338.185.394.218.108.624-.058.931-.269a1.127,1.127,0,0,1,.3-.148c.116-.04.14-.049.157-.318,0-.073.01-.146.016-.22a6.148,6.148,0,0,0,.026-.658Q7.6,15.924,7.527,15.924Z"></path><path d="M5.987,17.15a.65.65,0,0,0,.329-.185" style="fill:#c6b198;fill-rule:evenodd"></path><path d="M5.987,17.229a.079.079,0,0,1-.027-.152l.053-.019a.473.473,0,0,0,.241-.139.079.079,0,1,1,.126.094.615.615,0,0,1-.314.193l-.051.018A.078.078,0,0,1,5.987,17.229Z"></path><path d="M7.894,7.309C4.731,6.42,7.083,2.4,9.622,4.052Z" style="fill:#6ad7e5;fill-rule:evenodd"></path><path d="M7.934,7.4l-.061-.017a1.927,1.927,0,0,1-1.562-1.5,2.094,2.094,0,0,1,.977-1.979,2.116,2.116,0,0,1,2.378.081l.06.039Zm.449-3.666a1.852,1.852,0,0,0-1.01.3,1.933,1.933,0,0,0-.907,1.823A1.755,1.755,0,0,0,7.854,7.216L9.519,4.079A2.17,2.17,0,0,0,8.383,3.736Z"></path><path d="M21.944,3.75c2.5-1.758,4.765,2.209,1.856,3.207Z" style="fill:#6ad7e5;fill-rule:evenodd"></path><path d="M23.765,7.052,21.84,3.727l.059-.041a2.066,2.066,0,0,1,2.295-.193,2.122,2.122,0,0,1,1.044,1.965,1.881,1.881,0,0,1-1.413,1.573ZM22.049,3.773,23.836,6.86a1.712,1.712,0,0,0,1.246-1.418,1.961,1.961,0,0,0-.967-1.814A1.857,1.857,0,0,0,22.049,3.773Z"></path><path d="M22.483,27.317c.636.393,1.8,1.583.844,2.16-.916.839-1.429-.921-2.234-1.165A2.225,2.225,0,0,1,22.483,27.317Z" style="fill:#f6d2a2;fill-rule:evenodd"></path><path d="M22.844,29.781h-.038c-.361-.022-.661-.374-.951-.715a2.041,2.041,0,0,0-.785-.677l-.106-.032.066-.09a2.323,2.323,0,0,1,1.441-1.026l.029,0,.025.015c.407.252,1.247.988,1.243,1.654a.73.73,0,0,1-.393.636A.791.791,0,0,1,22.844,29.781Zm-1.625-1.5a2.505,2.505,0,0,1,.756.687c.281.33.547.642.841.66a.626.626,0,0,0,.457-.2l.012-.009a.578.578,0,0,0,.324-.506c0-.532-.672-1.2-1.144-1.5A2.055,2.055,0,0,0,21.219,28.276Z"></path><path d="M23.327,29.556a.079.079,0,0,1-.07-.043,2.918,2.918,0,0,1-.123-.3,1.309,1.309,0,0,0-.286-.518.079.079,0,0,1,.109-.113,1.447,1.447,0,0,1,.325.577,2.806,2.806,0,0,0,.116.28.079.079,0,0,1-.035.106A.078.078,0,0,1,23.327,29.556Z"></path><path d="M11.124,28.662c-.746.115-1.166.789-1.788,1.131-.586.35-.811-.112-.863-.206-.092-.042-.084.039-.226-.1C7.7,28.625,8.812,28,9.39,27.572,10.195,27.409,10.7,28.107,11.124,28.662Z" style="fill:#f6d2a2;fill-rule:evenodd"></path><path d="M8.939,30a.535.535,0,0,1-.141-.018.647.647,0,0,1-.38-.33H8.4c-.066,0-.115-.014-.213-.113l-.011-.013c-.523-.826.367-1.453.957-1.868.074-.052.144-.1.207-.148l.014-.01.017,0c.829-.168,1.353.518,1.773,1.069l.119.155-.131.02a2.263,2.263,0,0,0-1.105.634,4.023,4.023,0,0,1-.657.488A.859.859,0,0,1,8.939,30Zm-.527-.506a.213.213,0,0,1,.092.021l.023.011.02.035a.509.509,0,0,0,.292.269.6.6,0,0,0,.456-.1,3.909,3.909,0,0,0,.633-.471,2.629,2.629,0,0,1,1.056-.644c-.4-.526-.862-1.094-1.562-.963-.061.044-.127.091-.2.139-.6.424-1.352.952-.919,1.648.062.062.077.061.09.061Z"></path><path d="M8.472,29.665H8.465a.079.079,0,0,1-.072-.085,1.2,1.2,0,0,1,.253-.572,1.852,1.852,0,0,0,.165-.276.079.079,0,0,1,.144.064,1.992,1.992,0,0,1-.178.3,1.065,1.065,0,0,0-.226.5A.079.079,0,0,1,8.472,29.665Z"></path><path d="M8.026,6.2c-.417-.221-.723-.52-.468-1,.236-.447.675-.4,1.092-.178Z" style="fill-rule:evenodd"></path><path d="M23.141,5.778c.417-.221.723-.52.468-1-.236-.447-.675-.4-1.092-.178Z" style="fill-rule:evenodd"></path><path d="M26.013,17.046c-.04.826-.865.444-1.239.186-.355-.245-.459-.041-.49-.525a7.936,7.936,0,0,1-.039-.955,2.342,2.342,0,0,1,1.56.4c.227.165.651.69.208.9" style="fill:#f6d2a2;fill-rule:evenodd"></path><path d="M25.584,17.627a1.788,1.788,0,0,1-.854-.331.975.975,0,0,0-.261-.129c-.177-.062-.241-.114-.263-.456,0-.073-.01-.145-.016-.218a5.676,5.676,0,0,1-.023-.747l0-.068.068-.006a2.4,2.4,0,0,1,1.613.413,1.006,1.006,0,0,1,.432.727.358.358,0,0,1-.2.283.541.541,0,0,1-.27.482A.527.527,0,0,1,25.584,17.627Zm-1.263-1.8a6.148,6.148,0,0,0,.026.658c.006.073.011.146.016.22.017.269.041.277.157.318a1.127,1.127,0,0,1,.3.148c.306.212.713.377.931.269.113-.056.175-.188.185-.394l0-.047.043-.02a.219.219,0,0,0,.147-.177c.018-.19-.206-.466-.368-.584A2.232,2.232,0,0,0,24.321,15.824Z"></path><path d="M26.013,17.046a.65.65,0,0,1-.329-.185" style="fill:#c6b198;fill-rule:evenodd"></path><path d="M26.013,17.124a.078.078,0,0,1-.027,0l-.051-.018a.614.614,0,0,1-.314-.193.079.079,0,1,1,.126-.094.473.473,0,0,0,.241.139l.053.019a.079.079,0,0,1-.027.152Z"></path><path d="M15.683,2.079c3.166,0,6.134.453,7.681,3.495,1.389,3.409.895,7.086,1.107,10.689.182,3.094.585,6.668-.85,9.536-1.51,3.016-5.283,3.775-8.392,3.664-2.442-.087-5.391-.884-6.769-3.115-1.617-2.617-.851-6.509-.734-9.421.139-3.449-.934-6.91.2-10.285,1.176-3.5,4.346-4.293,7.758-4.563" style="fill:#6ad7e5;fill-rule:evenodd"></path><path d="M15.77,29.55c-.2,0-.38,0-.543-.01-1.5-.054-5.176-.469-6.833-3.152-1.307-2.116-1.074-5.041-.869-7.622.052-.649.1-1.263.124-1.843a29.673,29.673,0,0,0-.157-3.666,16.216,16.216,0,0,1,.36-6.641,5.812,5.812,0,0,1,3.08-3.539A12.948,12.948,0,0,1,15.677,2h.006c3.091,0,6.17.429,7.751,3.538l0,.006a20.518,20.518,0,0,1,1.044,7.762c.005.969.011,1.972.068,2.952.017.3.037.6.057.9.184,2.841.392,6.062-.915,8.673C22.059,29.092,17.947,29.55,15.77,29.55ZM15.686,2.157c-3.294.261-6.5.988-7.687,4.509a16.1,16.1,0,0,0-.353,6.578A29.788,29.788,0,0,1,7.8,16.93c-.024.584-.072,1.2-.124,1.85-.2,2.557-.434,5.455.846,7.527,1.618,2.619,5.228,3.025,6.705,3.077,1.922.069,6.579-.147,8.318-3.621,1.288-2.573,1.081-5.771.9-8.592-.02-.3-.039-.606-.057-.9-.058-.984-.063-1.989-.068-2.96a20.408,20.408,0,0,0-1.031-7.7C21.75,2.576,18.725,2.158,15.686,2.157Z"></path><path d="M16.242,6.329c.568,3.3,5.97,2.431,5.194-.9-.7-2.988-5.383-2.161-5.194.9" style="fill:#fff;fill-rule:evenodd"></path><path d="M18.808,8.485a3.025,3.025,0,0,1-.988-.162,2.444,2.444,0,0,1-1.653-1.982V6.333a2.672,2.672,0,0,1,2.416-2.814A2.482,2.482,0,0,1,21.51,5.41a2.312,2.312,0,0,1-.673,2.343A3.072,3.072,0,0,1,18.808,8.485ZM16.318,6.32A2.3,2.3,0,0,0,17.87,8.18a2.987,2.987,0,0,0,2.865-.54,2.165,2.165,0,0,0,.627-2.2A2.335,2.335,0,0,0,18.6,3.67,2.524,2.524,0,0,0,16.318,6.32Z"></path><path d="M9.788,6.863C10.524,9.74,15.13,9,14.956,6.118c-.208-3.456-5.873-2.789-5.169.745" style="fill:#fff;fill-rule:evenodd"></path><path d="M12.245,8.761A2.826,2.826,0,0,1,10.9,8.435,2.384,2.384,0,0,1,9.716,6.882v0a2.411,2.411,0,0,1,.826-2.472,3.107,3.107,0,0,1,3.087-.394,2.335,2.335,0,0,1,1.4,2.1,2.529,2.529,0,0,1-2.29,2.609A3.2,3.2,0,0,1,12.245,8.761ZM9.86,6.847a2.4,2.4,0,0,0,2.858,1.729,2.385,2.385,0,0,0,2.165-2.454,2.193,2.193,0,0,0-1.314-1.976,2.953,2.953,0,0,0-2.935.374A2.269,2.269,0,0,0,9.86,6.847Z"></path><path d="M16.894,10.294a7.45,7.45,0,0,1,.016,1.369c-.11.207-.325.229-.51.313a.751.751,0,0,1-.575-.449,9.72,9.72,0,0,1,.041-1.549Z" style="fill:#fff;fill-rule:evenodd"></path><path d="M16.411,12.057l-.023,0a.828.828,0,0,1-.635-.5l0-.01v-.011a5.2,5.2,0,0,1,.009-1.063c.013-.163.026-.331.031-.5l0-.1,1.181.362v.058c0,.142.012.289.024.444a3.746,3.746,0,0,1-.008.939l0,.012-.006.011a.658.658,0,0,1-.414.3c-.047.017-.091.032-.134.052Zm-.509-.551a.671.671,0,0,0,.488.388c.041-.017.083-.032.123-.047a.525.525,0,0,0,.322-.211,3.683,3.683,0,0,0,0-.887c-.01-.137-.02-.268-.023-.4l-.875-.268c-.007.136-.017.271-.027.4A5.05,5.05,0,0,0,15.9,11.506Z"></path><ellipse cx="11.058" cy="6.394" rx="0.778" ry="0.842"></ellipse><ellipse cx="11.412" cy="6.584" rx="0.183" ry="0.214" style="fill:#fff"></ellipse><ellipse cx="17.574" cy="6.184" rx="0.765" ry="0.842"></ellipse><ellipse cx="17.922" cy="6.374" rx="0.18" ry="0.214" style="fill:#fff"></ellipse><path d="M14.671,10.247c-.339.822.189,2.467,1.11,1.254a9.72,9.72,0,0,1,.041-1.549Z" style="fill:#fff;fill-rule:evenodd"></path><path d="M15.166,12.013a.451.451,0,0,1-.226-.062,1.6,1.6,0,0,1-.341-1.733l.015-.036L15.9,9.85l0,.1c-.005.17-.019.34-.032.5a5,5,0,0,0-.01,1.031l0,.032-.019.026C15.574,11.9,15.345,12.013,15.166,12.013Zm-.436-1.7a1.458,1.458,0,0,0,.288,1.5c.238.136.5-.1.681-.335a5.349,5.349,0,0,1,.013-1.031c.01-.129.02-.261.027-.392Z"></path><path d="M14.787,8.663a1,1,0,0,0-.821,1.4c.435.788,1.407-.07,2.013.011.7.014,1.268.737,1.827.131.622-.674-.268-1.331-.964-1.624Z" style="fill:#f6d2a2;fill-rule:evenodd"></path><path d="M17.308,10.526a1.727,1.727,0,0,1-.641-.179,1.928,1.928,0,0,0-.689-.194h-.009a1.749,1.749,0,0,0-.712.152c-.491.17-1.048.362-1.36-.2a.946.946,0,0,1,.014-.917,1.118,1.118,0,0,1,.869-.6h0L16.857,8.5l.016.007c.517.218,1.106.617,1.207,1.083a.836.836,0,0,1-.772.934ZM15.985,10a2.056,2.056,0,0,1,.743.206c.393.165.7.295,1.021-.05a.58.58,0,0,0,.178-.528c-.087-.4-.642-.769-1.1-.964l-2.036.081a.973.973,0,0,0-.742.517.792.792,0,0,0-.015.767c.248.449.7.294,1.17.13A1.856,1.856,0,0,1,15.985,10Z" style="fill:#231f20"></path><path d="M14.708,8.63C14.661,7.535,16.75,7.4,17,8.315s-2.186,1.128-2.289.316Z" style="fill-rule:evenodd"></path>
</symbol>

<symbol id="icon-react" viewBox="0 0 512 512">
<path d="M252.179 298.061C275.179 298.061 293.824 279.416 293.824 256.417C293.824 233.417 275.179 214.772 252.179 214.772C229.18 214.772 210.535 233.417 210.535 256.417C210.535 279.416 229.18 298.061 252.179 298.061Z" fill="#61DAFB"></path>
<path d="M504 256.468C504 223.08 462.188 191.439 398.084 171.817C412.877 106.48 406.303 54.4982 377.332 37.8557C370.655 33.9519 362.847 32.1027 354.32 32.1027V55.0118C359.046 55.0118 362.847 55.9364 366.032 57.6828C380.003 65.6959 386.064 96.2071 381.339 135.45C380.209 145.107 378.36 155.278 376.099 165.653C355.964 160.722 333.98 156.921 310.865 154.456C296.996 135.45 282.614 118.192 268.129 103.09C301.619 71.9625 333.055 54.9091 354.423 54.9091V32C326.172 32 289.189 52.1354 251.795 87.064C214.4 52.3408 177.417 32.4109 149.166 32.4109V55.32C170.431 55.32 201.97 72.2707 235.46 103.193C221.078 118.294 206.696 135.45 193.032 154.456C169.815 156.921 147.83 160.722 127.695 165.756C125.332 155.483 123.586 145.518 122.353 135.964C117.525 96.7207 123.483 66.2095 137.352 58.0938C140.434 56.2446 144.44 55.4228 149.166 55.4228V32.5137C140.536 32.5137 132.729 34.3628 125.949 38.2666C97.0811 54.9091 90.6091 106.788 105.505 171.92C41.6062 191.645 0 223.183 0 256.468C0 289.856 41.8117 321.497 105.916 341.119C91.1227 406.456 97.6975 458.438 126.668 475.08C133.345 478.984 141.153 480.833 149.782 480.833C178.033 480.833 215.017 460.698 252.411 425.769C289.805 460.492 326.788 480.422 355.04 480.422C363.669 480.422 371.477 478.573 378.257 474.669C407.124 458.027 413.596 406.148 398.7 341.016C462.394 321.394 504 289.753 504 256.468ZM370.244 187.946C366.443 201.199 361.717 214.862 356.375 228.525C352.163 220.307 347.746 212.088 342.917 203.87C338.192 195.651 333.158 187.638 328.124 179.83C342.712 181.988 356.786 184.659 370.244 187.946ZM323.193 297.355C315.18 311.224 306.961 324.373 298.435 336.598C283.128 337.934 267.615 338.653 252 338.653C236.488 338.653 220.975 337.934 205.771 336.701C197.244 324.476 188.923 311.429 180.91 297.663C173.102 284.205 166.014 270.542 159.542 256.776C165.911 243.01 173.102 229.244 180.807 215.786C188.82 201.918 197.039 188.768 205.565 176.543C220.872 175.207 236.385 174.488 252 174.488C267.512 174.488 283.025 175.208 298.229 176.44C306.756 188.665 315.077 201.712 323.09 215.478C330.898 228.936 337.986 242.599 344.458 256.365C337.986 270.131 330.898 283.897 323.193 297.355ZM356.375 284C361.923 297.766 366.648 311.532 370.552 324.887C357.094 328.174 342.917 330.948 328.227 333.106C333.261 325.195 338.294 317.079 343.02 308.758C347.746 300.54 352.163 292.218 356.375 284ZM252.206 393.614C242.651 383.752 233.097 372.76 223.646 360.74C232.892 361.151 242.343 361.459 251.897 361.459C261.554 361.459 271.108 361.254 280.457 360.74C271.211 372.76 261.657 383.752 252.206 393.614ZM175.773 333.106C161.185 330.948 147.111 328.277 133.653 324.99C137.455 311.737 142.18 298.074 147.522 284.411C151.734 292.629 156.152 300.848 160.98 309.066C165.808 317.285 170.74 325.298 175.773 333.106ZM251.692 119.322C261.246 129.184 270.8 140.176 280.251 152.196C271.005 151.785 261.554 151.477 252 151.477C242.343 151.477 232.789 151.682 223.441 152.196C232.687 140.176 242.241 129.184 251.692 119.322ZM175.671 179.83C170.637 187.741 165.603 195.857 160.877 204.178C156.152 212.396 151.734 220.615 147.522 228.833C141.975 215.067 137.249 201.301 133.345 187.946C146.803 184.762 160.98 181.988 175.671 179.83ZM82.6988 308.45C46.3319 292.938 22.8064 272.597 22.8064 256.468C22.8064 240.339 46.3319 219.896 82.6988 204.486C91.5337 200.685 101.19 197.295 111.155 194.11C117.011 214.245 124.716 235.203 134.27 256.673C124.819 278.042 117.216 298.896 111.464 318.929C101.293 315.744 91.6364 312.251 82.6988 308.45ZM137.968 455.253C123.997 447.24 117.936 416.729 122.661 377.486C123.791 367.829 125.64 357.658 127.901 347.282C148.036 352.214 170.02 356.015 193.135 358.48C207.004 377.486 221.386 394.744 235.871 409.846C202.381 440.973 170.945 458.027 149.577 458.027C144.954 457.924 141.05 457 137.968 455.253ZM381.647 376.972C386.475 416.215 380.517 446.726 366.648 454.842C363.566 456.691 359.56 457.513 354.834 457.513C333.569 457.513 302.03 440.563 268.54 409.64C282.922 394.539 297.305 377.383 310.968 358.378C334.185 355.912 356.17 352.111 376.305 347.077C378.668 357.453 380.517 367.418 381.647 376.972ZM421.199 308.45C412.364 312.251 402.707 315.641 392.742 318.826C386.886 298.691 379.181 277.733 369.627 256.263C379.079 234.894 386.681 214.04 392.434 194.007C402.604 197.192 412.261 200.685 421.301 204.486C457.668 219.998 481.194 240.339 481.194 256.468C481.091 272.597 457.565 293.04 421.199 308.45Z" fill="#61DAFB"></path>
</symbol>

<symbol id="icon-git" viewBox="0 0 32 32">
<path d="M29.472,14.753,17.247,2.528a1.8,1.8,0,0,0-2.55,0L12.158,5.067l3.22,3.22a2.141,2.141,0,0,1,2.712,2.73l3.1,3.1a2.143,2.143,0,1,1-1.285,1.21l-2.895-2.895v7.617a2.141,2.141,0,1,1-1.764-.062V12.3a2.146,2.146,0,0,1-1.165-2.814L10.911,6.314,2.528,14.7a1.8,1.8,0,0,0,0,2.551L14.753,29.472a1.8,1.8,0,0,0,2.55,0L29.472,17.3a1.8,1.8,0,0,0,0-2.551" style="fill:#dd4c35"></path><path d="M12.158,5.067l3.22,3.22a2.141,2.141,0,0,1,2.712,2.73l3.1,3.1a2.143,2.143,0,1,1-1.285,1.21l-2.895-2.895v7.617a2.141,2.141,0,1,1-1.764-.062V12.3a2.146,2.146,0,0,1-1.165-2.814L10.911,6.314" style="fill:#fff"></path>
</symbol>

<symbol id="icon-cog" viewBox="0 0 32 32">
<path d="M23.265,24.381l.9-.894c4.164.136,4.228-.01,4.411-.438l1.144-2.785L29.805,20l-.093-.231c-.049-.122-.2-.486-2.8-2.965V15.5c3-2.89,2.936-3.038,2.765-3.461L28.538,9.225c-.171-.422-.236-.587-4.37-.474l-.9-.93a20.166,20.166,0,0,0-.141-4.106l-.116-.263-2.974-1.3c-.438-.2-.592-.272-3.4,2.786l-1.262-.019c-2.891-3.086-3.028-3.03-3.461-2.855L9.149,3.182c-.433.175-.586.237-.418,4.437l-.893.89c-4.162-.136-4.226.012-4.407.438L2.285,11.733,2.195,12l.094.232c.049.12.194.48,2.8,2.962l0,1.3c-3,2.89-2.935,3.038-2.763,3.462l1.138,2.817c.174.431.236.584,4.369.476l.9.935a20.243,20.243,0,0,0,.137,4.1l.116.265,2.993,1.308c.435.182.586.247,3.386-2.8l1.262.016c2.895,3.09,3.043,3.03,3.466,2.859l2.759-1.115C23.288,28.644,23.44,28.583,23.265,24.381ZM11.407,17.857a4.957,4.957,0,1,1,6.488,2.824A5.014,5.014,0,0,1,11.407,17.857Z" style="fill:#99b8c4">
</symbol>

</defs>
</svg>

