<svg aria-hidden="true" style="position: absolute; width: 0; height: 0; overflow: hidden;" version="1.1" xmlns="http://www.w3.org/2000/svg" xmlns:xlink="http://www.w3.org/1999/xlink">
<defs>

<!-- LOGO -->

<symbol id="icon-fireship" viewBox="0 0 1024 1024">
<path d="M404,44.27c-1.65-1.4-5.44-1.34-8.59-2-1.65,2.44-3.78,4.37-4.3,6.5a122,122,0,0,0-2.67,16.34c-12.19,122.65-57.84,236.48-146.68,340.66-49.28,57.78-98.33,116.85-134.6,179.62-90,155.75-9.91,314.8,186.41,384.32,6.46,2.27,13.72,3.31,29.91,7.09C256.89,916.59,222.6,855.39,234.16,783c11-69.07,45.95-130.69,98.87-186.88,3.9,7.82,4.14,14.63,3.87,21.44-2.58,61.62,17.81,116,80.82,158.94,29.13,19.84,55.29,42.31,81.63,64.39,26.76,22.5,34.51,49.54,26.91,79-3.66,14.32-9,28.39-14.78,46.07,44.84-4.43,86.31-10.62,114.15-35.39,26.61-23.65,46.31-51.73,74.72-84.4,2,27.66,5.89,49.18,4.38,70.5-1.59,22.17-8.44,44.11-13,66.19C828,962.32,948.21,828.63,953.49,691.85c3.87-99.81-81.06-246-152.38-260.18,4,9.36,7.72,18.24,11.71,27,24.75,54.5,32,109.76,16.34,166.79C813.51,682.19,734.08,745.82,664,753.87c2.37-5.69,3.36-11,6.61-15.33C746.09,636.85,747,530.42,704.1,421.81,646.74,276.6,536.61,155.21,404,44.27Z"></path>
</symbol>

<!-- SOCIALS -->

<symbol id="icon-facebook" viewBox="0 0 24 24">
<path d="M21.82,0H2.18A2.19,2.19,0,0,0,0,2.18V21.82A2.19,2.19,0,0,0,2.18,24H13.09V14.18H9.82V10.91h3.27V9.15c0-3.33,1.62-4.79,4.39-4.79a14.78,14.78,0,0,1,2.35.15V7.64H18c-1.18,0-1.59.62-1.59,1.87v1.4H19.8l-.46,3.27h-3V24h5.46A2.19,2.19,0,0,0,24,21.82V2.18A2.19,2.19,0,0,0,21.82,0Z"/>
</symbol>

<symbol id="icon-twitter" viewBox="0 0 512 512">
<path d="M459.37 151.716c.325 4.548.325 9.097.325 13.645 0 138.72-105.583 298.558-298.558 298.558-59.452 0-114.68-17.219-161.137-47.106 8.447.974 16.568 1.299 25.34 1.299 49.055 0 94.213-16.568 130.274-44.832-46.132-.975-84.792-31.188-98.112-72.772 6.498.974 12.995 1.624 19.818 1.624 9.421 0 18.843-1.3 27.614-3.573-48.081-9.747-84.143-51.98-84.143-102.985v-1.299c13.969 7.797 30.214 12.67 47.431 13.319-28.264-18.843-46.781-51.005-46.781-87.391 0-19.492 5.197-37.36 14.294-52.954 51.655 63.675 129.3 105.258 216.365 109.807-1.624-7.797-2.599-15.918-2.599-24.04 0-57.828 46.782-104.934 104.934-104.934 30.213 0 57.502 12.67 76.67 33.137 23.715-4.548 46.456-13.32 66.599-25.34-7.798 24.366-24.366 44.833-46.132 57.827 21.117-2.273 41.584-8.122 60.426-16.243-14.292 20.791-32.161 39.308-52.628 54.253z" />
</symbol>

<symbol id="icon-youtube" viewBox="0 0 576 512">
<path d="M549.655 124.083c-6.281-23.65-24.787-42.276-48.284-48.597C458.781 64 288 64 288 64S117.22 64 74.629 75.486c-23.497 6.322-42.003 24.947-48.284 48.597-11.412 42.867-11.412 132.305-11.412 132.305s0 89.438 11.412 132.305c6.281 23.65 24.787 41.5 48.284 47.821C117.22 448 288 448 288 448s170.78 0 213.371-11.486c23.497-6.321 42.003-24.171 48.284-47.821 11.412-42.867 11.412-132.305 11.412-132.305s0-89.438-11.412-132.305zm-317.51 213.508V175.185l142.739 81.205-142.739 81.201z" />
</symbol>

<symbol id="icon-linkedin" viewBox="0 0 448 512">
<path d="M416 32H31.9C14.3 32 0 46.5 0 64.3v383.4C0 465.5 14.3 480 31.9 480H416c17.6 0 32-14.5 32-32.3V64.3c0-17.8-14.4-32.3-32-32.3zM135.4 416H69V202.2h66.5V416zm-33.2-243c-21.3 0-38.5-17.3-38.5-38.5S80.9 96 102.2 96c21.2 0 38.5 17.3 38.5 38.5 0 21.3-17.2 38.5-38.5 38.5zm282.1 243h-66.4V312c0-24.8-.5-56.7-34.5-56.7-34.6 0-39.9 27-39.9 54.9V416h-66.4V202.2h63.7v29.2h.9c8.9-16.8 30.6-34.5 62.9-34.5 67.2 0 79.7 44.3 79.7 101.9V416z"/>
</symbol>

<symbol id="icon-medium" viewBox="0 0 448 512">
<path d="M0 32v448h448V32H0zm372.2 106.1l-24 23c-2.1 1.6-3.1 4.2-2.7 6.7v169.3c-.4 2.6.6 5.2 2.7 6.7l23.5 23v5.1h-118V367l24.3-23.6c2.4-2.4 2.4-3.1 2.4-6.7V199.8l-67.6 171.6h-9.1L125 199.8v115c-.7 4.8 1 9.7 4.4 13.2l31.6 38.3v5.1H71.2v-5.1l31.6-38.3c3.4-3.5 4.9-8.4 4.1-13.2v-133c.4-3.7-1-7.3-3.8-9.8L75 138.1V133h87.3l67.4 148L289 133.1h83.2v5z"/>
</symbol>

<symbol id="icon-portfolio" viewBox="0 0 512 512">
<path d="M204.3 5C104.9 24.4 24.8 104.3 5.2 203.4c-37 187 131.7 326.4 258.8 306.7 41.2-6.4 61.4-54.6 42.5-91.7-23.1-45.4 9.9-98.4 60.9-98.4h79.7c35.8 0 64.8-29.6 64.9-65.3C511.5 97.1 368.1-26.9 204.3 5zM96 320c-17.7 0-32-14.3-32-32s14.3-32 32-32 32 14.3 32 32-14.3 32-32 32zm32-128c-17.7 0-32-14.3-32-32s14.3-32 32-32 32 14.3 32 32-14.3 32-32 32zm128-64c-17.7 0-32-14.3-32-32s14.3-32 32-32 32 14.3 32 32-14.3 32-32 32zm128 64c-17.7 0-32-14.3-32-32s14.3-32 32-32 32 14.3 32 32-14.3 32-32 32z"/>
</symbol>

<symbol id="icon-github" viewBox="0 0 496 512">
<path d="M165.9 397.4c0 2-2.3 3.6-5.2 3.6-3.3.3-5.6-1.3-5.6-3.6 0-2 2.3-3.6 5.2-3.6 3-.3 5.6 1.3 5.6 3.6zm-31.1-4.5c-.7 2 1.3 4.3 4.3 4.9 2.6 1 5.6 0 6.2-2s-1.3-4.3-4.3-5.2c-2.6-.7-5.5.3-6.2 2.3zm44.2-1.7c-2.9.7-4.9 2.6-4.6 4.9.3 2 2.9 3.3 5.9 2.6 2.9-.7 4.9-2.6 4.6-4.6-.3-1.9-3-3.2-5.9-2.9zM244.8 8C106.1 8 0 113.3 0 252c0 110.9 69.8 205.8 169.5 239.2 12.8 2.3 17.3-5.6 17.3-12.1 0-6.2-.3-40.4-.3-61.4 0 0-70 15-84.7-29.8 0 0-11.4-29.1-27.8-36.6 0 0-22.9-15.7 1.6-15.4 0 0 24.9 2 38.6 25.8 21.9 38.6 58.6 27.5 72.9 20.9 2.3-16 8.8-27.1 16-33.7-55.9-6.2-112.3-14.3-112.3-110.5 0-27.5 7.6-41.3 23.6-58.9-2.6-6.5-11.1-33.3 2.6-67.9 20.9-6.5 69 27 69 27 20-5.6 41.5-8.5 62.8-8.5s42.8 2.9 62.8 8.5c0 0 48.1-33.6 69-27 13.7 34.7 5.2 61.4 2.6 67.9 16 17.7 25.8 31.5 25.8 58.9 0 96.5-58.9 104.2-114.8 110.5 9.2 7.9 17 22.9 17 46.4 0 33.7-.3 75.4-.3 83.6 0 6.5 4.6 14.4 17.3 12.1C428.2 457.8 496 362.9 496 252 496 113.3 383.5 8 244.8 8zM97.2 352.9c-1.3 1-1 3.3.7 5.2 1.6 1.6 3.9 2.3 5.2 1 1.3-1 1-3.3-.7-5.2-1.6-1.6-3.9-2.3-5.2-1zm-10.8-8.1c-.7 1.3.3 2.9 2.3 3.9 1.6 1 3.6.7 4.3-.7.7-1.3-.3-2.9-2.3-3.9-2-.6-3.6-.3-4.3.7zm32.4 35.6c-1.6 1.3-1 4.3 1.3 6.2 2.3 2.3 5.2 2.6 6.5 1 1.3-1.3.7-4.3-1.3-6.2-2.2-2.3-5.2-2.6-6.5-1zm-11.4-14.7c-1.6 1-1.6 3.6 0 5.9 1.6 2.3 4.3 3.3 5.6 2.3 1.6-1.3 1.6-3.9 0-6.2-1.4-2.3-4-3.3-5.6-2z"></path>
</symbol>

<symbol id="icon-slack" viewBox="0 0 448 512">
<path d="M244.2 217.5l19.3 57.7-59.8 20-19.3-57.7 59.8-20zm41.4 243.7C131.6 507.4 65 471.6 18.8 317.6S8.4 97 162.4 50.8C316.4 4.6 383 40.4 429.2 194.4c46.2 154 10.4 220.6-143.6 266.8zM366.2 265c-3.9-12.2-17.2-18.6-29.4-14.7l-29 9.7-19.3-57.7 29-9.7c12.2-3.9 18.6-17.2 14.7-29.4-3.9-12.2-17.2-18.6-29.4-14.7l-29 9.7-10-30.1c-3.9-12.2-17.2-18.6-29.4-14.7-12.2 3.9-18.6 17.2-14.7 29.4l10 30.1-59.8 20.1-10-30.1c-3.9-12.2-17.2-18.6-29.4-14.7-12.2 3.9-18.6 17.2-14.7 29.4l10 30.1-29 9.7c-12.2 3.9-18.6 17.2-14.7 29.4 3.2 9.3 12.2 15.4 21.5 15.8 4.3.6 7.7-1 36.9-10.7l19.3 57.7-29 9.7c-12.2 3.9-18.6 17.2-14.7 29.4 3.2 9.3 12.2 15.4 21.5 15.8 4.3.6 7.7-1 36.9-10.7l10 30.1c3.7 10.8 15.8 18.6 29.4 14.7 12.2-3.9 18.6-17.2 14.7-29.4l-10-30.1 59.8-20.1 10 30.1c3.7 10.8 15.8 18.6 29.4 14.7 12.2-3.9 18.6-17.2 14.7-29.4l-10-30.1 29-9.7c12.2-4.2 18.6-17.5 14.7-29.6z"></path>
</symbol>

<!-- ICONS -->

<symbol id="icon-angular" viewBox="0 0 32 32">
<polygon points="16 2 16 2 16 2 2.966 6.648 4.954 23.882 16 30 16 30 16 30 27.046 23.882 29.034 6.648 16 2" style="fill:#dd0031"></polygon>
<polygon points="16 2 16 5.108 16 5.094 16 19.276 16 19.276 16 30 16 30 27.046 23.882 29.034 6.648 16 2" style="fill:#c3002f"></polygon>
<path d="M16,5.094,7.852,23.364H10.89l1.638-4.088h6.916l1.638,4.088H24.12L16,5.094Zm2.38,11.662H13.62L16,11.03Z" style="fill:#fff"></path>
</symbol>

<symbol id="icon-github-color" viewBox="0 0 512 512">
<path d="M256.07,0C398-.13,511.91,113.92,512,256.29,512.09,397.44,397.73,511.87,256.44,512,115.31,512.5.5,398.5,0,257.37v-2.3C.29,113.58,114.18.13,256.07,0Zm34.07,340.45c11.86,14.4,11.32,31.63,11.05,48.83-.14,9.32,0,18.65,0,28,0,16.82,4.41,19.85,20.11,13.91,83-31.39,130.81-115.44,116.61-204.81C421.78,124.84,320,53.8,220.29,75.59,146.4,91.73,96.56,136.48,76.94,209.68c-19.47,72.68,1,135.86,56.09,187.23,17.21,16.06,37.58,27.38,59.66,35.42,10.24,3.73,16.74,1.09,17.26-7.26.72-11.63.18-23.34.18-33.93-10.08,0-18.28.49-26.39-.11-12.87-.94-25.52-4.16-32-16.5-7.66-14.73-14.94-29.34-29.37-38.81-.52-.34-.25-1.91-.34-2.88,15.57-3.57,22.47.14,35.6,18.92,10.73,15.36,24.39,20.35,43,16.61,16.82-3.4,11.52-20.54,19.79-27.64-15.63-5.43-30.69-9.07-44.3-15.69-39.36-19.14-47.76-87.74-23.59-119.6,2.72-3.59,3-9.45,3.36-14.33.75-10.59.54-21.24,1.2-31.84.46-7.41,5.52-10.29,12-8,11,3.9,21.56,9.25,32.58,13.21,5.37,1.93,11.69,3.78,17,2.77a199.21,199.21,0,0,1,74.62,0c5.31,1,11.59-1.07,17-3,11.37-4,22.33-9.17,33.69-13.19,5.79-2,10.07,1.15,10.52,7.18.81,10.94.77,21.95,1.29,32.91.19,4-.42,9.18,1.73,11.94,14.31,18.3,16.64,39.33,14.31,61.17-3,27.9-14.06,51.41-41.31,63.26C318.23,332.92,304.86,335.85,290.14,340.45Z" style="fill:#782f9e"/>
<path d="M290.14,340.45c14.72-4.6,28.09-7.53,40.39-12.89,27.25-11.85,38.34-35.36,41.31-63.26,2.33-21.84,0-42.87-14.31-61.17-2.15-2.76-1.54-7.89-1.73-11.94-.52-11-.48-22-1.29-32.91-.45-6-4.73-9.22-10.52-7.18-11.36,4-22.32,9.19-33.69,13.19-5.39,1.91-11.67,4-17,3a199.21,199.21,0,0,0-74.62,0c-5.34,1-11.66-.84-17-2.77-11-4-21.54-9.31-32.58-13.21-6.45-2.28-11.51.6-12,8-.66,10.6-.45,21.25-1.2,31.84-.34,4.88-.64,10.74-3.36,14.33C128.39,237.3,136.79,305.9,176.15,325c13.61,6.62,28.67,10.26,44.3,15.69-8.27,7.1-3,24.24-19.79,27.64-18.59,3.74-32.25-1.25-43-16.61-13.13-18.78-20-22.49-35.6-18.92.09,1-.18,2.54.34,2.88,14.43,9.47,21.71,24.08,29.37,38.81,6.43,12.34,19.08,15.56,32,16.5,8.11.6,16.31.11,26.39.11,0,10.59.54,22.3-.18,33.93-.52,8.35-7,11-17.26,7.26-22.08-8-42.45-19.36-59.66-35.42C77.94,345.54,57.47,282.36,76.94,209.68,96.56,136.48,146.4,91.73,220.29,75.59,320,53.8,421.78,124.84,437.91,226.35c14.2,89.37-33.65,173.42-116.61,204.81-15.7,5.94-20.08,2.91-20.11-13.91,0-9.32-.14-18.65,0-28C301.46,372.08,302,354.85,290.14,340.45Z" style="fill:#f6f8fa"/>
</symbol>

<symbol id="icon-firebase" viewBox="0 0 32 32">
<path d="M5.8,24.6l.17-.237L13.99,9.149l.017-.161L10.472,2.348a.656.656,0,0,0-1.227.207Z" style="fill:#ffc24a"></path>
<path d="M5.9,24.42l.128-.25L13.965,9.114,10.439,2.448a.6.6,0,0,0-1.133.206Z" style="fill:#ffa712"></path>
<path d="M16.584,14.01l2.632-2.7L16.583,6.289a.678.678,0,0,0-1.195,0L13.981,8.971V9.2Z" style="fill:#f4bd62"></path>
<path d="M16.537,13.9l2.559-2.62L16.537,6.4a.589.589,0,0,0-1.074-.047L14.049,9.082l-.042.139Z" style="fill:#ffa50e"></path>
<polygon points="5.802 24.601 5.879 24.523 6.158 24.41 16.418 14.188 16.548 13.834 13.989 8.956 5.802 24.601" style="fill:#f6820c"></polygon>
<path d="M16.912,29.756,26.2,24.577,23.546,8.246A.635.635,0,0,0,22.471,7.9L5.8,24.6l9.233,5.155a1.927,1.927,0,0,0,1.878,0" style="fill:#fde068"></path>
<path d="M26.115,24.534,23.483,8.326a.557.557,0,0,0-.967-.353L5.9,24.569l9.131,5.1a1.912,1.912,0,0,0,1.863,0Z" style="fill:#fcca3f"></path>
<path d="M16.912,29.6a1.927,1.927,0,0,1-1.878,0L5.876,24.522,5.8,24.6l9.233,5.155a1.927,1.927,0,0,0,1.878,0L26.2,24.577l-.023-.14Z" style="fill:#eeab37"></path>
</symbol>

<symbol id="icon-spidy" viewBox="0 0 576 512">
<path d="M382.29 26.13c-2.79-8.38 1.73-17.44 10.12-20.24L407.58.83c8.38-2.8 17.45 1.73 20.24 10.12l25.89 77.68a32.04 32.04 0 0 1-1.73 24.43l-27.15 54.3L398.9 176h-4.67l-5.22-26.12c-.71-3.58-1.8-7.58-3.21-11.79l20.29-40.58-23.8-71.38zM151.17 167.35L177.1 176h4.67l5.22-26.12c.72-3.58 1.8-7.58 3.21-11.79l-20.29-40.58 23.8-71.39c2.79-8.38-1.73-17.44-10.12-20.24L168.42.82c-8.38-2.8-17.45 1.73-20.24 10.12l-25.89 77.68a32.04 32.04 0 0 0 1.73 24.43l27.15 54.3zm417.7 204.21l-13.31 8.88c-7.35 4.9-17.29 2.91-22.19-4.44l-48-72h-47.06l60.83 97.33a31.988 31.988 0 0 1 4.86 16.96V496c0 8.84-7.16 16-16 16h-16c-8.84 0-16-7.16-16-16v-73.11l-74.08-118.53c1.01 14.05 2.08 28.11 2.08 42.21C384 399.64 343.24 448 288 448s-96-48.36-96-101.43c0-14.1 1.08-28.16 2.08-42.21L120 422.89V496c0 8.84-7.16 16-16 16H88c-8.84 0-16-7.16-16-16v-77.71c0-6 1.69-11.88 4.86-16.96L137.69 304H90.63l-48 72c-4.9 7.35-14.84 9.34-22.19 4.44l-13.31-8.88c-7.35-4.9-9.34-14.84-4.44-22.19l52.75-79.12A32.007 32.007 0 0 1 82.07 256H160l-68.99-24.36a32.03 32.03 0 0 1-16.51-12.61l-53.6-80.41c-4.9-7.35-2.91-17.29 4.44-22.19l13.31-8.88c7.35-4.9 17.29-2.91 22.19 4.44l50.56 75.83L171.9 208H208l10.37-51.85C220.56 145.18 235.74 96 288 96c52.26 0 67.44 49.18 69.63 60.15L368 208h36.1l60.49-20.17L515.16 112c4.9-7.35 14.83-9.34 22.19-4.44l13.31 8.88c7.35 4.9 9.34 14.83 4.44 22.19l-53.6 80.41a32.03 32.03 0 0 1-16.51 12.61L416 256h77.94c10.7 0 20.69 5.35 26.62 14.25l52.75 79.12c4.9 7.36 2.92 17.29-4.44 22.19zM300 320l26.4-35.2c3.96-5.27.19-12.8-6.4-12.8h-64c-6.59 0-10.36 7.53-6.4 12.8L276 320l-26.4 35.2c-3.96 5.27-.19 12.8 6.4 12.8h64c6.59 0 10.36-7.53 6.4-12.8L300 320z"></path>
</symbol>

<symbol id="icon-merged" viewBox="0 0 384 512">
<path d="M304 192c-38 0-69.8 26.5-77.9 62-23.9-3.5-58-12.9-83.9-37.6-16.6-15.9-27.9-36.5-33.7-61.6C138.6 143.3 160 114.1 160 80c0-44.2-35.8-80-80-80S0 35.8 0 80c0 35.8 23.5 66.1 56 76.3v199.3C23.5 365.9 0 396.2 0 432c0 44.2 35.8 80 80 80s80-35.8 80-80c0-35.8-23.5-66.1-56-76.3V246.1c1.6 1.7 3.3 3.4 5 5 39.3 37.5 90.4 48.6 121.2 51.8 12.1 28.9 40.6 49.2 73.8 49.2 44.2 0 80-35.8 80-80S348.2 192 304 192zM80 48c17.6 0 32 14.4 32 32s-14.4 32-32 32-32-14.4-32-32 14.4-32 32-32zm0 416c-17.6 0-32-14.4-32-32s14.4-32 32-32 32 14.4 32 32-14.4 32-32 32zm224-160c-17.6 0-32-14.4-32-32s14.4-32 32-32 32 14.4 32 32-14.4 32-32 32z"></path>
</symbol>

<!-- LANGUAGES -->

<symbol id="icon-javascript" viewBox="0 0 32 32">
  <rect x="2" y="2" width="28" height="28" style="fill: #f5de19"></rect>
  <path
    d="M20.809,23.875a2.866,2.866,0,0,0,2.6,1.6c1.09,0,1.787-.545,1.787-1.3,0-.9-.716-1.222-1.916-1.747l-.658-.282c-1.9-.809-3.16-1.822-3.16-3.964,0-1.973,1.5-3.476,3.853-3.476a3.889,3.889,0,0,1,3.742,2.107L25,18.128A1.789,1.789,0,0,0,23.311,17a1.145,1.145,0,0,0-1.259,1.128c0,.789.489,1.109,1.618,1.6l.658.282c2.236.959,3.5,1.936,3.5,4.133,0,2.369-1.861,3.667-4.36,3.667a5.055,5.055,0,0,1-4.795-2.691Zm-9.295.228c.413.733.789,1.353,1.693,1.353.864,0,1.41-.338,1.41-1.653V14.856h2.631v8.982c0,2.724-1.6,3.964-3.929,3.964a4.085,4.085,0,0,1-3.947-2.4Z"
    style="fill: #232323"
  ></path>
</symbol>

<symbol id="icon-html" viewBox="0 0 32 32">
  <polygon points="5.902 27.201 3.655 2 28.345 2 26.095 27.197 15.985 30 5.902 27.201" style="fill:#e44f26"></polygon>
  <polygon points="16 27.858 24.17 25.593 26.092 4.061 16 4.061 16 27.858" style="fill:#f1662a"></polygon>
  <polygon points="16 13.407 11.91 13.407 11.628 10.242 16 10.242 16 7.151 15.989 7.151 8.25 7.151 8.324 7.981 9.083 16.498 16 16.498 16 13.407" style="fill:#ebebeb"></polygon>
  <polygon points="16 21.434 15.986 21.438 12.544 20.509 12.324 18.044 10.651 18.044 9.221 18.044 9.654 22.896 15.986 24.654 16 24.65 16 21.434" style="fill:#ebebeb"></polygon>
  <polygon points="15.989 13.407 15.989 16.498 19.795 16.498 19.437 20.507 15.989 21.437 15.989 24.653 22.326 22.896 22.372 22.374 23.098 14.237 23.174 13.407 22.341 13.407 15.989 13.407" style="fill:#fff"></polygon>
  <polygon points="15.989 7.151 15.989 9.071 15.989 10.235 15.989 10.242 23.445 10.242 23.445 10.242 23.455 10.242 23.517 9.548 23.658 7.981 23.732 7.151 15.989 7.151" style="fill:#fff"></polygon>
</symbol>

<symbol id="icon-css" viewBox="0 0 32 32">
<polygon points="5.902 27.201 3.656 2 28.344 2 26.095 27.197 15.985 30 5.902 27.201" style="fill:#1572b6"></polygon><polygon points="16 27.858 24.17 25.593 26.092 4.061 16 4.061 16 27.858" style="fill:#33a9dc"></polygon><polygon points="16 13.191 20.09 13.191 20.372 10.026 16 10.026 16 6.935 16.011 6.935 23.75 6.935 23.676 7.764 22.917 16.282 16 16.282 16 13.191" style="fill:#fff"></polygon><polygon points="16.019 21.218 16.005 21.222 12.563 20.292 12.343 17.827 10.67 17.827 9.24 17.827 9.673 22.68 16.004 24.438 16.019 24.434 16.019 21.218" style="fill:#ebebeb"></polygon><polygon points="19.827 16.151 19.455 20.29 16.008 21.22 16.008 24.436 22.344 22.68 22.391 22.158 22.928 16.151 19.827 16.151" style="fill:#fff"></polygon><polygon points="16.011 6.935 16.011 8.855 16.011 10.018 16.011 10.026 8.555 10.026 8.555 10.026 8.545 10.026 8.483 9.331 8.342 7.764 8.268 6.935 16.011 6.935" style="fill:#ebebeb"></polygon><polygon points="16 13.191 16 15.111 16 16.274 16 16.282 12.611 16.282 12.611 16.282 12.601 16.282 12.539 15.587 12.399 14.02 12.325 13.191 16 13.191" style="fill:#ebebeb"></polygon>
</symbol>

<symbol id="icon-terminal" viewBox="0 0 640 512">
<path d="M257.981 272.971L63.638 467.314c-9.373 9.373-24.569 9.373-33.941 0L7.029 444.647c-9.357-9.357-9.375-24.522-.04-33.901L161.011 256 6.99 101.255c-9.335-9.379-9.317-24.544.04-33.901l22.667-22.667c9.373-9.373 24.569-9.373 33.941 0L257.981 239.03c9.373 9.372 9.373 24.568 0 33.941zM640 456v-32c0-13.255-10.745-24-24-24H312c-13.255 0-24 10.745-24 24v32c0 13.255 10.745 24 24 24h304c13.255 0 24-10.745 24-24z"></path>
</symbol>

<symbol id="icon-typescript" viewBox="0 0 32 32">
<rect width="32" height="32" style="fill:#1976d2"/>
<polygon points="19.1 14.22 7.31 14.22 7.31 17.12 11.54 17.12 11.54 30.22 14.89 30.22 14.89 17.12 19.1 17.12 19.1 14.22" style="fill:#fff"/>
<path d="M29.51,17.85a6.93,6.93,0,0,0-3.39-1.06c-1.79,0-2.44.86-2.44,1.77,0,2.35,6.56,2.12,6.56,6.85,0,7.3-10,4.06-10,4.06V26a7.81,7.81,0,0,0,4.2,1.45c2.3,0,2.21-1.51,2.21-1.71,0-2.18-6.5-2.18-6.5-7,0-6.57,9.47-4,9.47-4Z" style="fill:#fff"/>
</symbol>

</defs>
</svg>

