<svg aria-hidden="true" style="position: absolute; width: 0; height: 0; overflow: hidden;" version="1.1" xmlns="http://www.w3.org/2000/svg" xmlns:xlink="http://www.w3.org/1999/xlink">
<defs>

<symbol id="icon-facebook" viewBox="0 0 24 24">
<path d="M21.82,0H2.18A2.19,2.19,0,0,0,0,2.18V21.82A2.19,2.19,0,0,0,2.18,24H13.09V14.18H9.82V10.91h3.27V9.15c0-3.33,1.62-4.79,4.39-4.79a14.78,14.78,0,0,1,2.35.15V7.64H18c-1.18,0-1.59.62-1.59,1.87v1.4H19.8l-.46,3.27h-3V24h5.46A2.19,2.19,0,0,0,24,21.82V2.18A2.19,2.19,0,0,0,21.82,0Z"/>
</symbol>

<symbol id="icon-twitter" viewBox="0 0 512 512">
<path d="M459.37 151.716c.325 4.548.325 9.097.325 13.645 0 138.72-105.583 298.558-298.558 298.558-59.452 0-114.68-17.219-161.137-47.106 8.447.974 16.568 1.299 25.34 1.299 49.055 0 94.213-16.568 130.274-44.832-46.132-.975-84.792-31.188-98.112-72.772 6.498.974 12.995 1.624 19.818 1.624 9.421 0 18.843-1.3 27.614-3.573-48.081-9.747-84.143-51.98-84.143-102.985v-1.299c13.969 7.797 30.214 12.67 47.431 13.319-28.264-18.843-46.781-51.005-46.781-87.391 0-19.492 5.197-37.36 14.294-52.954 51.655 63.675 129.3 105.258 216.365 109.807-1.624-7.797-2.599-15.918-2.599-24.04 0-57.828 46.782-104.934 104.934-104.934 30.213 0 57.502 12.67 76.67 33.137 23.715-4.548 46.456-13.32 66.599-25.34-7.798 24.366-24.366 44.833-46.132 57.827 21.117-2.273 41.584-8.122 60.426-16.243-14.292 20.791-32.161 39.308-52.628 54.253z" />
</symbol>

<symbol id="icon-youtube" viewBox="0 0 576 512">
<path d="M549.655 124.083c-6.281-23.65-24.787-42.276-48.284-48.597C458.781 64 288 64 288 64S117.22 64 74.629 75.486c-23.497 6.322-42.003 24.947-48.284 48.597-11.412 42.867-11.412 132.305-11.412 132.305s0 89.438 11.412 132.305c6.281 23.65 24.787 41.5 48.284 47.821C117.22 448 288 448 288 448s170.78 0 213.371-11.486c23.497-6.321 42.003-24.171 48.284-47.821 11.412-42.867 11.412-132.305 11.412-132.305s0-89.438-11.412-132.305zm-317.51 213.508V175.185l142.739 81.205-142.739 81.201z" />
</symbol>


<symbol id="icon-fireship" viewBox="0 0 1024 1024">
<path d="M404,44.27c-1.65-1.4-5.44-1.34-8.59-2-1.65,2.44-3.78,4.37-4.3,6.5a122,122,0,0,0-2.67,16.34c-12.19,122.65-57.84,236.48-146.68,340.66-49.28,57.78-98.33,116.85-134.6,179.62-90,155.75-9.91,314.8,186.41,384.32,6.46,2.27,13.72,3.31,29.91,7.09C256.89,916.59,222.6,855.39,234.16,783c11-69.07,45.95-130.69,98.87-186.88,3.9,7.82,4.14,14.63,3.87,21.44-2.58,61.62,17.81,116,80.82,158.94,29.13,19.84,55.29,42.31,81.63,64.39,26.76,22.5,34.51,49.54,26.91,79-3.66,14.32-9,28.39-14.78,46.07,44.84-4.43,86.31-10.62,114.15-35.39,26.61-23.65,46.31-51.73,74.72-84.4,2,27.66,5.89,49.18,4.38,70.5-1.59,22.17-8.44,44.11-13,66.19C828,962.32,948.21,828.63,953.49,691.85c3.87-99.81-81.06-246-152.38-260.18,4,9.36,7.72,18.24,11.71,27,24.75,54.5,32,109.76,16.34,166.79C813.51,682.19,734.08,745.82,664,753.87c2.37-5.69,3.36-11,6.61-15.33C746.09,636.85,747,530.42,704.1,421.81,646.74,276.6,536.61,155.21,404,44.27Z"></path>
</symbol>

</defs>
</svg>

